<?xml version="1.0" standalone="no"?><!DOCTYPE svg PUBLIC "-//W3C//DTD SVG 1.1//EN" "http://www.w3.org/Graphics/SVG/1.1/DTD/svg11.dtd"><svg t="1573992083058" class="icon" viewBox="0 0 1024 1024" version="1.1" xmlns="http://www.w3.org/2000/svg" p-id="8876" xmlns:xlink="http://www.w3.org/1999/xlink" width="200" height="200"><defs><style type="text/css"></style></defs><path d="M541.866667 573.866667v226.133333h128c17.066667 0 29.866667 12.8 29.866666 29.866667v29.866666h-371.2v-29.866666c0-17.066667 12.8-29.866667 29.866667-29.866667h119.466667v-226.133333h-91.733334V512c0-17.066667 6.4-32 17.066667-44.8s27.733333-17.066667 44.8-17.066667h121.6c34.133333 0 61.866667 27.733333 61.866667 61.866667v61.866667h-89.6z m-29.866667 433.066666c273.066667 0 494.933333-221.866667 494.933333-494.933333 0-273.066667-221.866667-494.933333-494.933333-494.933333-273.066667 0-494.933333 221.866667-494.933333 494.933333 0 273.066667 221.866667 494.933333 494.933333 494.933333z m119.466667-785.066666c93.866667 40.533333 162.133333 123.733333 183.466666 224s-10.666667 204.8-83.2 277.333333c-8.533333 8.533333-19.2 10.666667-29.866666 8.533333-10.666667-2.133333-19.2-10.666667-21.333334-21.333333-2.133333-10.666667 0-21.333333 8.533334-29.866667 96-96 93.866667-253.866667-2.133334-349.866666-96-96-251.733333-96-349.866666 2.133333-96 96-96 251.733333 0 349.866667 12.8 12.8 12.8 32 0 44.8-12.8 12.8-32 12.8-44.8 0-72.533333-74.666667-104.533333-179.2-83.2-281.6 21.333333-102.4 93.866667-185.6 189.866666-224l4.266667-17.066667c8.533333-34.133333 42.666667-59.733333 76.8-59.733333h61.866667c34.133333 0 70.4 25.6 81.066666 57.6 0-2.133333 8.533333 19.2 8.533334 19.2z" fill="#C0341D" p-id="8877"></path></svg>