<?xml version="1.0" standalone="no"?><!DOCTYPE svg PUBLIC "-//W3C//DTD SVG 1.1//EN" "http://www.w3.org/Graphics/SVG/1.1/DTD/svg11.dtd"><svg t="1573989424510" class="icon" viewBox="0 0 1024 1024" version="1.1" xmlns="http://www.w3.org/2000/svg" p-id="2797" xmlns:xlink="http://www.w3.org/1999/xlink" width="200" height="200"><defs><style type="text/css"></style></defs><path d="M511.479696 26.345473c-242.696654 0-439.439981 196.737633-439.439981 439.43571 0 223.061753 166.326527 406.848011 381.637099 435.207794l57.798611 74.735901 57.804305-74.735901c215.310572-28.359783 381.631406-212.144617 381.631406-435.207794 0.004271-242.699501-196.733363-439.435711-439.43144-439.43571z m0 0" fill="#009FE8" p-id="2798"></path><path d="M301.272518 733.515076c-0.002847 0-0.002847 0 0 0-13.184837 0-26.719864-4.012962-36.203494-10.739193-8.435904-5.976025-13.742865-16.476063-14.952875-29.571217-1.459129-15.821234 3.180191-31.781976 11.808273-40.670566 10.816064-11.133514 163.315738-152.582239 198.178256-184.90516l-16.026224-17.224846c-6.417323 0.684723-18.424891 1.752379-30.804003 1.752379-10.857347 0-19.809996-0.841313-26.618793-2.491197-4.535402-1.094703-12.336406-4.706226-32.624712-23.030046-12.890164-11.640295-28.49929-27.218103-43.954674-43.862144-13.631828-14.685249-58.610029-64.292805-64.838021-86.087217-8.243726-28.823858-4.064209-62.261412-3.311157-67.633856 0.210684-14.332211 6.714843-40.271974 30.211811-40.271974 14.930098 0 33.342177 11.274445 56.293927 34.465351 12.969882 13.100848 158.821619 158.024437 191.93603 190.926739l19.926727-20.547391c-8.693565-7.856523-21.519669-21.355962-24.296998-34.704505-3.79516-18.225595 0.350191-26.635875 8.599611-43.389529 0.784371-1.595789 1.621413-3.286956 2.499738-5.101971 14.118679-28.981871 118.290561-122.383241 136.210095-136.128953 5.321196-4.072751 10.944183-6.141156 16.718065-6.141155 9.717091 0 18.78647 6.108414 23.672063 15.935117 4.054245 8.164007 3.906196 16.743689-0.361579 22.386606-6.333334 8.357609-98.671319 103.265086-110.713053 115.634233-3.010789 3.81509-9.448041 14.510153-5.571739 18.386455 0.355885 0.358732 0.744512 0.659099 1.815015 0.6591 4.909793 0 12.672362-5.570316 15.603432-8.222373 5.708399-5.645764 100.339709-99.260665 108.789849-107.299401 4.818686-4.588073 10.534203-7.013786 16.513075-7.013786 11.310033 0 20.227094 8.471492 24.047878 16.86896 3.778078 8.312056 3.01933 16.740842-2.044205 22.546042-8.001724 9.176145-103.38751 113.746618-107.448873 118.192337l-0.303214 0.317449c-1.284034 1.332434-6.925527 7.724133-2.578033 13.264555 0.609276 0.781524 1.039185 0.992208 2.01004 0.992208 4.106916 0 10.779052-4.398742 13.614746-6.864314 4.832922-4.766015 100.453592-99.037169 111.175703-109.693797 3.85922-3.827902 9.002473-5.855024 14.871732-5.855024 12.041733 0 25.944034 8.75193 30.990488 19.506782 3.158837 6.726231 2.474114 13.589122-1.879075 18.822059-0.445568 0.532404-1.126021 1.366599-2.024275 2.455608-26.702782 32.441075-51.463853 60.685552-73.601339 83.949058-59.465577 62.517649-81.547545 69.740696-92.972884 69.740696-1.456282 0-2.875553-0.129542-4.215105-0.388627-18.984342-3.698359-35.725184-14.851803-44.914142-21.999402l-22.042108 25.676409a2559312.557828 2559312.557828 0 0 1 192.484093 187.678218c6.377464 6.21518 12.40616 20.602909 11.591894 36.066834-0.697535 13.14213-6.242227 24.15749-16.02053 31.857424-8.958343 7.050798-20.805051 10.942759-33.350718 10.942759-13.804077 0-26.244401-4.741815-32.463852-12.3663-6.161085-7.544767-112.918117-127.173457-174.150309-195.681366L335.236782 720.84129c-7.721286 8.179666-19.784372 12.676632-33.969958 12.676633l0.005694-0.002847z m149.915947-302.639117" fill="#FFFFFF" p-id="2799"></path></svg>