<?xml version="1.0" standalone="no"?><!DOCTYPE svg PUBLIC "-//W3C//DTD SVG 1.1//EN" "http://www.w3.org/Graphics/SVG/1.1/DTD/svg11.dtd"><svg t="1574651838872" class="icon" viewBox="0 0 1417 1024" version="1.1" xmlns="http://www.w3.org/2000/svg" p-id="8311" xmlns:xlink="http://www.w3.org/1999/xlink" width="276.7578125" height="200"><defs><style type="text/css"></style></defs><path d="M1260.07218684 90.12451555h-908.65891555c-71.66065778 0.0728178-129.73283554 58.14613333-129.80565335 129.79996445v584.14421333c0.0728178 71.66065778 58.14613333 129.73283554 129.80110222 129.80565335h908.66574223c71.66065778-0.0728178 129.73397333-58.14613333 129.80565335-129.79996446v-584.14421333c-0.0728178-71.66065778-58.14613333-129.73283554-129.79996446-129.80565334zM1324.96989352 804.06983111c-0.04664887 35.82975999-29.07932445 64.86243555-64.90453335 64.91022222h-908.65208889c-35.82520889-0.05347556-64.85105778-29.08387556-64.89656889-64.90453333v-584.14079999c0.04551111-35.82975999 29.07932445-64.86243555 64.90453335-64.90908446h908.65208887c35.82520889 0.05347556 64.85105778 29.08387556 64.89770667 64.90453334z" fill="#1296db" p-id="8312"></path><path d="M1137.43794688 537.7024c35.04810666-29.79043556 57.72515555-73.60056889 57.72515552-123.05294223 0-89.46688-72.79388445-162.26190222-162.26190222-162.26190218s-162.24824887 72.79502223-162.24824889 162.26190218c0 49.45237333 22.71118221 93.26250667 57.76042666 123.05294223-72.74837333 37.91075555-122.66723555 113.91772445-122.66723556 201.4674489 0 17.92341334 14.53169779 32.45397335 32.45397337 32.45397332 17.92341334 0 32.45397335-14.53169779 32.45397331-32.45397335 0-89.46688 72.79502223-162.26076444 162.26076444-162.26076442s162.26190222 72.79388445 162.26190225 162.26076442c0 0 0 0 0 0 0 17.92341334 14.53169779 32.45397335 32.45397331 32.45397335 17.92341334 0 32.45397335-14.53169779 32.45397335-32.45397335 0 0 0 0 0 0-0.01023999-87.54972444-49.89610667-163.55783111-122.64675554-201.46744887zM935.55065799 414.64832c0-53.76796445 43.5859911-97.35168 97.35281777-97.35168s97.35168 43.5859911 97.35167998 97.35168c0 53.76796445-43.5859911 97.35168-97.35167998 97.35168-53.74179555-0.05916446-97.29137778-43.61102221-97.35168-97.3471289zM773.28648018 317.28412445h-389.42037333c-17.92341334 0-32.45397335 14.53169779-32.45397334 32.45397333s14.53169779 32.45397335 32.45397334 32.45397333h389.42037333c17.92341334 0 32.45397335-14.53169779 32.45397333-32.45397333s-14.53169779-32.45397335-32.45397333-32.45397333zM740.83250683 479.54602665h-356.96639998c-17.92341334 0-32.45397335 14.53169779-32.45397334 32.45397335s14.53169779 32.45397335 32.45397334 32.45397335h356.96639998c17.92341334 0 32.45397335-14.53169779 32.45397335-32.45397335s-14.53169779-32.45397335-32.45397335-32.45397335zM643.48082685 641.80565333h-259.61358223c-17.92341334 0-32.45397335 14.53169779-32.45397334 32.45397334s14.53169779 32.45397335 32.45397334 32.45397333h259.61358223c17.92341334 0 32.45397335-14.53169779 32.45397337-32.45397333s-14.53169779-32.45397335-32.45397337-32.45397334z" fill="#1296db" p-id="8313"></path></svg>