<?xml version="1.0" standalone="no"?><!DOCTYPE svg PUBLIC "-//W3C//DTD SVG 1.1//EN" "http://www.w3.org/Graphics/SVG/1.1/DTD/svg11.dtd"><svg t="1574651762314" class="icon" viewBox="0 0 1024 1024" version="1.1" xmlns="http://www.w3.org/2000/svg" p-id="7472" xmlns:xlink="http://www.w3.org/1999/xlink" width="200" height="200"><defs><style type="text/css"></style></defs><path d="M818.345 782.42c-20.794-58.575-75.756-78.197-81.028-80.54-40.71-17.963-147.803-38.366-147.803-38.366a184.01 184.01 0 0 1-0.586-35.926c62.48-32.997 77.123-107.093 77.123-107.093 101.53-104.458 20.99-127.302 20.99-127.302 2.245-84.542-26.261-133.649-26.261-133.649 33.094-31.923 30.654-50.179 30.654-50.179-35.437 0.098-90.01-29.775-90.01-29.775-89.911-27.432-145.07-2.246-145.07-2.246-138.138 49.105-122.226 219.262-122.226 219.262-78.782 21.087 17.768 123.885 17.768 123.885 8.005 76.538 82.785 107.875 82.785 107.875 2.343 14.253 2.246 26.066 0.684 35.926-60.332 8.689-172.795 50.862-181.387 56.33-24.797 16.107-44.224 40.904-51.058 64.92-10.25 36.12 16.792 71.948 54.28 71.948h507.94c38.757 0.098 66.092-38.366 53.206-75.073z m0 0" p-id="7473" fill="#1296db"></path></svg>