<?xml version="1.0" standalone="no"?><!DOCTYPE svg PUBLIC "-//W3C//DTD SVG 1.1//EN" "http://www.w3.org/Graphics/SVG/1.1/DTD/svg11.dtd"><svg t="1573990530377" class="icon" viewBox="0 0 1024 1024" version="1.1" xmlns="http://www.w3.org/2000/svg" p-id="4781" xmlns:xlink="http://www.w3.org/1999/xlink" width="200" height="200"><defs><style type="text/css"></style></defs><path d="M698.6496 293.6064c0-20.864-3.456-41.2416-10.0608-60.7488H326.9888a189.3888 189.3888 0 0 0-9.856 60.7488c0 105.1392 85.5808 190.7456 190.7968 190.7456 105.1904 0 190.72-85.5808 190.72-190.7456zM458.368 542.9504l21.7088 43.1104-21.7088 104.832 49.7152 49.7664 49.7152-49.7664-21.6832-104.832 21.6832-43.1104zM710.0672 188.672l47.7696-47.6928-242.9184-115.328-242.9696 115.328 47.6672 47.6928h390.4512z m-250.7264-128h111.104v31.4624h-18.4832c4.6336 8.4992 7.3984 18.6624 7.3984 29.6704 0 29.6704-19.9168 53.6832-44.4416 53.6832-24.5504 0-44.4928-24.0128-44.4928-53.6832 0-10.9824 2.816-21.1712 7.424-29.6704h-18.5088V60.672z" fill="#19A19B" p-id="4782"></path><path d="M711.168 557.5936h-20.096l-179.8144 374.9376-185.0112-374.9376h-20.3264a153.7536 153.7536 0 0 0-153.5744 153.6v244.8384h712.4736v-244.8384c0-84.6848-68.864-153.6-153.6512-153.6z m-393.0368 159.872h-16.8704c4.1472 7.8336 6.7072 16.9728 6.7072 27.008 0 26.9824-18.0736 48.7168-40.3968 48.7168-22.3488 0-40.448-21.76-40.448-48.7168 0-10.0352 2.56-19.1744 6.7584-27.008h-16.8192v-28.6464h101.0688v28.6464z m482.4064 0h-101.0944v-28.6464h101.0944v28.6464z" fill="#19A19B" p-id="4783"></path><path d="M779.4432 890.88m-105.9328 0a105.9328 105.9328 0 1 0 211.8656 0 105.9328 105.9328 0 1 0-211.8656 0Z" fill="#19A19B" p-id="4784"></path></svg>