<?xml version="1.0" standalone="no"?><!DOCTYPE svg PUBLIC "-//W3C//DTD SVG 1.1//EN" "http://www.w3.org/Graphics/SVG/1.1/DTD/svg11.dtd"><svg t="1574649297988" class="icon" viewBox="0 0 1024 1024" version="1.1" xmlns="http://www.w3.org/2000/svg" p-id="1901" xmlns:xlink="http://www.w3.org/1999/xlink" width="200" height="200"><defs><style type="text/css"></style></defs><path d="M515.888478 595.346457l-26.503048-26.503047-20.568002-20.670331c-6.549016-6.549016-11.153792-11.460777-13.712002-14.735285-5.218747-4.604777-12.074748-8.288598-20.568002-11.256121-8.493255-2.967523-15.656241-1.125612-21.591286 5.423403-5.218747 7.162986-6.549016 14.223643-3.888478 21.079645 2.660538 6.856001 5.525732 12.279404 8.800239 16.167882l14.735286 13.712002c7.162986 7.879285 15.04227 16.372539 23.535525 25.479764 9.823524 10.437494 20.568002 21.591286 32.335765 33.359049l-1.023284 20.568002h-66.718097c-5.935045 0-10.949136 2.251224-15.246927 6.856001-4.297792 4.604777-6.344359 9.516538-6.344359 14.735285s1.944239 9.823524 5.935045 13.712002c3.888478 3.888478 9.209553 5.935045 15.656241 5.935045h66.718097v34.382333h-66.718097c-5.935045 0-10.949136 1.841911-15.246927 5.423403-4.297792 3.581493-6.344359 8.390926-6.344359 14.223644-0.61397 5.218747 1.125612 9.618867 5.423403 13.200359 4.297792 3.581493 9.618867 5.423404 16.167883 5.423404h66.718097v19.647047c0.61397 9.107225 3.581493 15.553912 8.80024 19.135405s11.767763 5.423404 19.647047 5.423404c7.879285 0.61397 14.223643-1.841911 19.135405-7.367643 4.911762-5.525732 7.367643-11.256121 7.367643-17.191166v-19.647047h68.662336c6.549016 0 11.972419-1.432597 16.167883-4.40012 4.297792-2.967523 6.037374-7.674628 5.423403-14.223643 0-13.712002-9.107225-20.568002-27.526331-20.568003H542.391526l1.023284-33.359048 63.750574-1.023284c9.107225 0.61397 15.656241-1.125612 19.647047-5.423404 3.888478-4.297792 5.935045-9.311882 5.935046-15.246927 0-5.218747-2.148896-9.925852-6.344359-14.223643-4.297792-4.297792-10.949136-6.344359-20.158689-6.344359H542.391526v-18.623764c11.153792-10.437494 21.284301-20.568002 30.391526-30.391526 7.879285-7.879285 15.656241-15.860897 23.535525-24.047167 7.879285-8.18627 13.712002-13.916658 17.702808-17.191166 15.04227-13.098031 18.316778-24.558809 9.823524-34.382332-4.604777-5.935045-10.437494-8.80024-17.702808-8.80024-7.162986 0-13.712002 2.660538-19.647048 7.879285-3.274508 2.660538-8.80024 7.367643-16.679524 14.223643-7.879285 6.856001-15.758569 13.916658-23.535525 21.079644-9.107225 8.595583-19.237734 18.009793-30.391526 28.549615zM619.95643 294.091736c7.879285 10.437494 17.702808 21.898271 29.470571 34.382332 9.823524 11.153792 21.898271 23.740182 36.326571 37.759169 14.4283 14.018987 31.107825 28.958929 50.038573 44.615169 15.656241 13.712002 31.926451 29.879884 48.605976 48.605976 16.679524 18.623763 31.210153 40.419706 43.694214 65.2855 12.381733 24.865794 21.079644 53.517738 25.991406 85.853503 4.911762 32.438093 4.093135 68.560008-2.455881 108.468072-5.832717 32.745078-17.498151 63.648246-34.791645 92.709503-17.293495 29.061257-40.419706 54.438693-69.173979 76.029979-28.754272 21.591286-62.931948 38.782452-102.533026 51.471171-39.601079 12.791046-84.523234 19.135405-134.971121 19.135405-51.675827 0-97.518937-7.367643-137.427001-22.102928-39.908064-14.735285-73.778755-33.870691-101.612071-57.406216-27.833317-23.535525-49.833916-49.833916-66.206456-78.997502s-27.117018-58.020186-32.335765-86.876786c-5.935045-32.02878-6.651344-62.829619-2.455881-92.197861 4.297792-29.470571 11.972419-57.099231 23.023884-82.88598 11.153792-25.786749 25.070451-49.526931 41.749975-71.118217 16.679524-21.591286 34.791646-40.931348 54.438693-57.917858 16.986509-15.04227 32.438093-29.265914 46.150095-42.67093 13.712002-13.405016 25.172779-25.684421 34.382332-36.838214C380.815029 316.910962 390.638553 305.1432 399.131808 294.091736h220.824622zM509.032477 97.825922c1.330269 0 2.967523-0.61397 4.911762-1.944239 3.888478-2.660538 9.107225-7.162986 15.656241-13.712002 7.879285-7.162986 15.656241-12.381733 23.535525-15.65624 7.879285-3.274508 18.316778-2.251224 31.414809 2.967522 6.549016 1.944239 11.767763 4.707105 15.656241 8.390927 3.888478 3.581493 7.674628 7.060658 11.256121 10.335165 3.581493 3.274508 7.572299 6.037374 11.767762 8.288598 4.297792 2.251224 9.618867 3.479165 16.167883 3.479165s12.074748-1.023284 16.679524-2.967523 9.004897-3.78615 13.20036-5.423404c4.297792-1.637254 8.493255-2.762866 12.791046-3.479164 4.297792-0.61397 9.311882 0 15.246927 1.944239 6.549016 2.660538 10.949136 6.344359 13.20036 11.25612 2.251224 4.911762 2.967523 9.925852 1.944239 15.246928-1.023284 5.218747-3.274508 10.437494-6.856001 15.65624-3.581493 5.218747-7.981613 9.516538-13.200359 12.791046-12.381733 7.879285-21.898271 15.860897-28.447287 24.047167-6.549016 8.18627-13.098031 16.884181-19.647047 25.991406-3.274508 4.604777-6.856001 9.823524-10.744479 15.656241-3.888478 5.935045-7.572299 11.767763-10.744479 17.702808-3.888478 7.162986-8.18627 14.018987-12.791046 20.568003H407.011092c-4.604777-7.879285-9.107225-15.349256-13.712001-22.61457-3.888478-6.549016-8.18627-13.098031-12.791047-19.647047-4.604777-6.549016-8.493255-12.484061-11.767762-17.702808-6.549016-9.823524-13.916658-18.521435-22.102928-25.991406-8.18627-7.572299-16.167882-14.223643-24.047167-20.158689-8.493255-5.935045-14.4283-13.916658-17.702808-24.047167-3.274508-10.130509-0.306985-18.82842 8.80024-25.991406 4.604777-3.274508 9.823524-4.604777 15.65624-3.888478 5.935045 0.61397 12.074748 1.944239 18.623764 3.888478 6.549016 1.944239 12.893375 3.888478 19.135405 5.935045 6.242031 1.944239 11.972419 2.251224 17.191166 1.023284 9.209553-1.944239 16.065554-5.423404 20.568002-10.335165 4.604777-4.911762 12.484061-10.949136 23.535526-18.112122 8.493255-5.218747 18.009793-7.060658 28.447286-5.423404 10.437494 1.637254 18.316778 5.116419 23.535526 10.335166 2.660538 3.274508 5.423404 6.037374 8.288598 8.390926 2.967523 2.251224 6.037374 4.40012 9.311881 6.344359 3.581493 2.558209 7.162986 4.911762 11.051464 6.856001z m0 0" fill="#f77446" p-id="1902"></path></svg>