<?xml version="1.0" standalone="no"?><!DOCTYPE svg PUBLIC "-//W3C//DTD SVG 1.1//EN" "http://www.w3.org/Graphics/SVG/1.1/DTD/svg11.dtd"><svg t="1573971646363" class="icon" viewBox="0 0 1024 1024" version="1.1" xmlns="http://www.w3.org/2000/svg" p-id="1191" xmlns:xlink="http://www.w3.org/1999/xlink" width="40px" height="60px"><defs><style type="text/css"></style></defs><path d="M230.195 348.239h680.888c27.016 0 48.917 21.9 48.917 48.917 0 27.016-21.901 48.918-48.917 48.918h-782.68a49.11 49.11 0 0 1-10.322-1.092c-14.179 1.497-28.886-3.188-39.753-14.055-19.104-19.104-19.104-50.077 0-69.18l161.419-161.42c19.103-19.103 50.076-19.103 69.18 0 19.103 19.104 19.103 50.077 0 69.18l-78.732 78.732z m563.61 326.935H112.917c-27.016 0-48.917-21.9-48.917-48.917 0-27.017 21.901-48.918 48.917-48.918h782.68c3.54 0 6.994 0.377 10.322 1.091 14.179-1.496 28.886 3.19 39.753 14.056 19.104 19.104 19.104 50.077 0 69.18l-161.419 161.42c-19.103 19.103-50.076 19.103-69.18 0-19.103-19.104-19.103-50.077 0-69.18l78.732-78.732z" p-id="1192"></path></svg>