<?xml version="1.0" standalone="no"?><!DOCTYPE svg PUBLIC "-//W3C//DTD SVG 1.1//EN" "http://www.w3.org/Graphics/SVG/1.1/DTD/svg11.dtd"><svg t="1573989444034" class="icon" viewBox="0 0 1613 1024" version="1.1" xmlns="http://www.w3.org/2000/svg" p-id="4305" xmlns:xlink="http://www.w3.org/1999/xlink" width="315.0390625" height="200"><defs><style type="text/css"></style></defs><path d="M1053.603694 149.354748h45.022285a31.351134 31.351134 0 0 1 30.837181 30.837181v89.530617H687.15519v-89.119454a31.351134 31.351134 0 0 1 30.837181-30.837182h335.611323z" fill="#266FE5" p-id="4306"></path><path d="M1068.405541 149.354748h-52.628789c12.026501 0 21.791608 14.082313 21.791608 30.837181v89.530617h52.73158v-89.119454c0-17.166031-9.867898-31.248344-21.894399-31.248344z" fill="#1A56AD" p-id="4307"></path><path d="M1105.71853 285.552299H632.162216V180.603092A46.564144 46.564144 0 0 1 678.417988 133.627786h218.430034a15.418591 15.418591 0 0 1 0 30.837181H678.417988a15.829753 15.829753 0 0 0-15.726962 15.829753v74.112026h411.881951v-73.803654A15.829753 15.829753 0 0 0 1058.743224 164.464967h-44.816703a15.418591 15.418591 0 1 1 0-30.837181H1058.743224a46.666934 46.666934 0 0 1 46.666935 46.666934z" p-id="4308"></path><path d="M386.492672 434.290303m26.108814 0l7.298133 0q26.108813 0 26.108813 26.108814l0 49.853443q0 26.108813-26.108813 26.108813l-7.298133 0q-26.108813 0-26.108814-26.108813l0-49.853443q0-26.108813 26.108814-26.108814Z" fill="#266FE5" p-id="4309"></path><path d="M1341.006224 434.290303m26.108813 0l7.298133 0q26.108813 0 26.108814 26.108814l0 49.853443q0 26.108813-26.108814 26.108813l-7.298133 0q-26.108813 0-26.108813-26.108813l0-49.853443q0-26.108813 26.108813-26.108814Z" fill="#266FE5" p-id="4310"></path><path d="M968.698655 164.464967h-9.456736a15.418591 15.418591 0 1 1 0-30.837181h9.456736a15.418591 15.418591 0 0 1 0 30.837181zM920.18149 164.464967h-23.333468a15.418591 15.418591 0 1 1 0-30.837181h23.333468a15.418591 15.418591 0 0 1 0 30.837181z" p-id="4311"></path><path d="M1324.765308 561.956234l-34.537643-267.255571a26.725557 26.725557 0 0 0-27.033929-20.558121h-709.255169a26.725557 26.725557 0 0 0-27.033929 20.558121l-34.640434 267.255571z" fill="#FFF42C" p-id="4312"></path><path d="M1264.324433 294.186709a24.772536 24.772536 0 0 0-24.464164-20.55812h-67.533427a24.772536 24.772536 0 0 1 24.464164 20.55812l30.837181 267.769525H1295.161614z" fill="#FFAF2E" p-id="4313"></path><path d="M1301.020679 577.374824h-867.552701l36.696246-285.141136a41.938567 41.938567 0 0 1 42.45252-34.229271h709.255169a42.041357 42.041357 0 0 1 42.45252 34.229271z m-832.603895-30.837181h797.449508L1233.487252 296.139731a12.026501 12.026501 0 0 0-11.82092-7.298133h-709.25517a11.92371 11.92371 0 0 0-11.820919 7.298133z" p-id="4314"></path><path d="M435.318209 857.068059v87.269223a63.935756 63.935756 0 0 0 63.730175 63.730174h46.975306a63.935756 63.935756 0 0 0 63.730175-63.730174v-87.269223zM1196.379843 857.068059v87.269223a63.935756 63.935756 0 0 0 63.730175 63.730174h46.975306a63.935756 63.935756 0 0 0 63.730175-63.730174v-87.269223z" fill="#333333" p-id="4315"></path><path d="M399.341498 853.675969v87.269223a63.935756 63.935756 0 0 0 63.730174 63.730174h46.975307a63.935756 63.935756 0 0 0 63.730174-63.730174v-87.269223z" p-id="4316"></path><path d="M510.046979 1020.093957h-46.975307a79.148765 79.148765 0 0 1-79.148765-79.148765v-102.790605h205.581209v102.790605a79.251556 79.251556 0 0 1-79.457137 79.148765z m-95.286891-150.999398v71.953423a48.414375 48.414375 0 0 0 48.311584 48.311584h46.975307a48.414375 48.414375 0 0 0 48.311584-48.311584v-71.953423z" p-id="4317"></path><path d="M1373.899217 563.600883h-69.589239v66.19715a41.116242 41.116242 0 0 1-41.116242 41.116241h-709.255169a41.116242 41.116242 0 0 1-41.116242-41.116241v-66.19715h-69.69203a41.116242 41.116242 0 0 0-41.116242 41.116242v206.197952a41.116242 41.116242 0 0 0 41.116242 41.116242h930.768922a41.116242 41.116242 0 0 0 41.116242-41.116242V604.717125a41.116242 41.116242 0 0 0-41.116242-41.116242z" fill="#266FE5" p-id="4318"></path><path d="M1342.445292 566.890183H1295.161614c16.549287 0 30.117647 18.502309 30.117647 41.116241v206.300743c0 22.613933-13.56836 41.116242-30.117647 41.116242h47.078097c16.549287 0 30.014856-18.502309 30.014856-41.116242V608.006424c0.205581-22.09998-13.259988-41.116242-29.809275-41.116241z" fill="#175196" p-id="4319"></path><path d="M1331.755069 853.675969v87.269223a63.935756 63.935756 0 0 1-63.730174 63.730174h-46.975307a63.935756 63.935756 0 0 1-63.730174-63.730174v-87.269223z" p-id="4320"></path><path d="M1268.024895 1020.093957h-46.975307a79.251556 79.251556 0 0 1-79.148765-79.148765v-102.790605h205.581209v102.790605a79.148765 79.148765 0 0 1-79.457137 79.148765z m-95.286891-150.999398v71.953423a48.414375 48.414375 0 0 0 48.311584 48.311584h46.975307a48.311584 48.311584 0 0 0 48.311584-48.311584v-71.953423z" p-id="4321"></path><path d="M1330.932744 869.094559H400.163823a56.534832 56.534832 0 0 1-56.534833-56.534832V606.464565a56.637623 56.637623 0 0 1 56.534833-56.534832h930.768921A56.637623 56.637623 0 0 1 1387.673158 606.464565a15.418591 15.418591 0 1 1-30.837181 0 25.697651 25.697651 0 0 0-25.697651-25.697651H400.163823a25.697651 25.697651 0 0 0-25.697652 25.697651v206.095162a25.697651 25.697651 0 0 0 25.697652 25.697651h930.768921a25.697651 25.697651 0 0 0 25.697652-25.697651V709.25517a15.418591 15.418591 0 0 1 30.837181 0v102.790604a56.534832 56.534832 0 0 1-56.534833 57.048785z" p-id="4322"></path><path d="M1372.048986 687.977515a15.418591 15.418591 0 0 1-15.41859-15.418591v-29.398113a15.418591 15.418591 0 1 1 30.837181 0v29.398113a15.418591 15.418591 0 0 1-15.418591 15.418591z" p-id="4323"></path><path d="M466.360972 565.348324h791.487653v66.197149a41.116242 41.116242 0 0 1-41.116242 41.116242h-709.25517a41.116242 41.116242 0 0 1-41.116241-41.116242V565.348324z" fill="#FFFFFF" p-id="4324"></path><path d="M1216.835174 687.977515h-709.25517a56.534832 56.534832 0 0 1-56.534832-56.534833v-81.61574h822.324834v81.61574a56.534832 56.534832 0 0 1-56.534832 56.534833zM481.779562 580.664124v50.778558a25.800442 25.800442 0 0 0 25.697651 25.697651h709.25517a25.697651 25.697651 0 0 0 25.697651-25.697651v-50.778558zM1062.546477 487.124674a15.213009 15.213009 0 0 1-10.895804-4.522787L921.414977 352.366192a15.418591 15.418591 0 0 1 21.791608-21.791609l130.235696 130.235696a15.3158 15.3158 0 0 1 0 21.791608 14.904638 14.904638 0 0 1-10.895804 4.522787zM621.060831 362.542461a15.3158 15.3158 0 0 1-10.895804-4.522786l-2.055812-2.055812a15.418591 15.418591 0 0 1 21.791608-21.791608l2.055812 2.055812a15.418591 15.418591 0 0 1-10.895804 26.314394zM746.259787 491.030717a14.904638 14.904638 0 0 1-10.895804-4.522787l-98.781771-98.67898a15.418591 15.418591 0 0 1 21.894399-21.791608l98.67898 98.67898a15.521381 15.521381 0 0 1 0 21.791608 15.110219 15.110219 0 0 1-10.895804 4.522787zM847.816904 444.158201a14.904638 14.904638 0 0 1-10.895804-4.522786l-44.405541-44.302751a15.521381 15.521381 0 0 1 0-21.791608 15.3158 15.3158 0 0 1 21.791608 0l44.405541 44.30275a15.521381 15.521381 0 0 1 0 21.791609 15.213009 15.213009 0 0 1-10.895804 4.522786zM1541.242321 1024H1026.055812a15.418591 15.418591 0 0 1 0-30.837181h515.186509a15.418591 15.418591 0 0 1 0 30.837181zM982.678177 1024h-15.624172a15.418591 15.418591 0 1 1 0-30.837181h15.624172a15.418591 15.418591 0 0 1 0 30.837181zM923.265208 1024H329.649468a15.418591 15.418591 0 1 1 0-30.837181h593.61574a15.418591 15.418591 0 0 1 0 30.837181zM283.702068 1024a15.418591 15.418591 0 0 1 0-30.837181 15.418591 15.418591 0 0 1 0 30.837181zM237.137924 1024h-70.719936a15.418591 15.418591 0 0 1 0-30.837181h70.719936a15.418591 15.418591 0 0 1 0 30.837181zM393.790805 551.882754h-7.195342a41.732985 41.732985 0 0 1-41.116242-41.116241V460.501907a41.732985 41.732985 0 0 1 41.116242-41.116241h7.195342a41.732985 41.732985 0 0 1 41.116242 41.116241v49.750653a41.732985 41.732985 0 0 1-41.116242 41.630194z m-7.195342-102.17386a10.895804 10.895804 0 0 0-10.279061 10.27906v49.750653a10.895804 10.895804 0 0 0 10.279061 10.27906h7.195342a10.895804 10.895804 0 0 0 10.27906-10.27906V460.501907a10.895804 10.895804 0 0 0-10.27906-10.27906zM1346.556916 551.882754h-7.298133a41.630195 41.630195 0 0 1-41.116241-41.116241V460.501907a41.630195 41.630195 0 0 1 41.116241-41.116241h7.298133a41.630195 41.630195 0 0 1 41.116242 41.116241v49.750653a41.630195 41.630195 0 0 1-41.116242 41.630194z m-7.298133-102.17386a10.27906 10.27906 0 0 0-10.27906 10.27906v49.750653a10.27906 10.27906 0 0 0 10.27906 10.27906h7.298133a10.27906 10.27906 0 0 0 10.279061-10.27906V460.501907a10.27906 10.27906 0 0 0-10.279061-10.27906z" p-id="4325"></path><path d="M1239.449107 95.595262h-30.837182a10.27906 10.27906 0 1 1 0-20.558121h30.837182a10.27906 10.27906 0 0 1 0 20.558121zM1230.403533 148.635214a10.27906 10.27906 0 0 1-7.298132-2.980928 10.27906 10.27906 0 0 1 0-14.596266l21.894398-21.894398a10.27906 10.27906 0 1 1 14.596266 14.185103l-21.894399 21.894399a10.27906 10.27906 0 0 1-7.298133 3.39209zM1283.443485 170.632403a10.27906 10.27906 0 0 1-10.27906-10.27906v-30.837182a10.27906 10.27906 0 1 1 20.558121 0v30.837182a10.27906 10.27906 0 0 1-10.279061 10.27906zM1336.277856 148.635214a10.27906 10.27906 0 0 1-7.195342-2.980928L1307.290905 123.348725a10.27906 10.27906 0 1 1 14.596266-14.596266l21.894399 21.894399a10.27906 10.27906 0 0 1 0 14.596266 10.27906 10.27906 0 0 1-7.503714 3.39209zM1358.480626 95.595262h-30.837181a10.27906 10.27906 0 1 1 0-20.558121h30.837181a10.27906 10.27906 0 0 1 0 20.558121zM1314.589038 64.449709a10.27906 10.27906 0 0 1-7.298133-2.980928 10.27906 10.27906 0 0 1 0-14.596265l21.99719-21.894399a10.27906 10.27906 0 0 1 14.493475 0 10.27906 10.27906 0 0 1 0 14.596266L1321.887171 61.674363a10.27906 10.27906 0 0 1-7.298133 2.775346zM1283.443485 51.395302a10.27906 10.27906 0 0 1-10.27906-10.27906V10.27906a10.27906 10.27906 0 0 1 20.558121 0v30.837182a10.27906 10.27906 0 0 1-10.279061 10.27906zM1252.297932 64.449709a10.27906 10.27906 0 0 1-7.298133-2.980928L1223.208191 39.574383a10.27906 10.27906 0 1 1 14.596266-14.596266l21.894399 21.894399a10.27906 10.27906 0 0 1 0 14.596265 10.27906 10.27906 0 0 1-7.400924 2.980928z" fill="#FFAF2E" p-id="4326"></path><path d="M1440.610319 285.552299h-68.15017a15.418591 15.418591 0 0 1 0-30.837182h68.15017a15.418591 15.418591 0 0 1 0 30.837182z" fill="#F15A24" p-id="4327"></path><path d="M1406.586629 319.575989a15.418591 15.418591 0 0 1-15.41859-15.418591V236.41839a15.418591 15.418591 0 0 1 30.837181 0v68.150171a15.418591 15.418591 0 0 1-15.418591 15.007428z" fill="#F15A24" p-id="4328"></path><path d="M344.040153 294.083919H298.092752a10.27906 10.27906 0 0 1 0-20.558121h46.255772a10.27906 10.27906 0 0 1 0 20.558121z" fill="#29ABE2" p-id="4329"></path><path d="M320.912267 317.211805a10.27906 10.27906 0 0 1-10.279061-10.279061v-46.255772a10.27906 10.27906 0 0 1 20.558121 0v46.255772a10.27906 10.27906 0 0 1-10.27906 10.279061zM1541.242321 237.035134a44.30275 44.30275 0 1 1 44.19996-44.302751 44.30275 44.30275 0 0 1-44.19996 44.302751z m0-67.94459a23.74463 23.74463 0 1 0 23.641839 23.641839 23.74463 23.74463 0 0 0-23.641839-23.641839z" fill="#29ABE2" p-id="4330"></path><path d="M227.475607 226.961654a34.229271 34.229271 0 1 1 34.229272-34.229271 34.229271 34.229271 0 0 1-34.229272 34.229271z m0-47.900421a13.67115 13.67115 0 1 0 13.671151 13.67115 13.773941 13.773941 0 0 0-13.671151-13.67115z" fill="#F15A24" p-id="4331"></path><path d="M1595.001807 346.095965m-18.296728 0a18.296728 18.296728 0 1 0 36.593455 0 18.296728 18.296728 0 1 0-36.593455 0Z" fill="#FFF42C" p-id="4332"></path><path d="M16.857659 412.601486m-16.857659 0a16.857659 16.857659 0 1 0 33.715318 0 16.857659 16.857659 0 1 0-33.715318 0Z" fill="#FFF42C" p-id="4333"></path><path d="M201.777956 406.639631m-19.016262 0a19.016262 19.016262 0 1 0 38.032524 0 19.016262 19.016262 0 1 0-38.032524 0Z" fill="#29ABE2" p-id="4334"></path><path d="M329.649468 364.392692m-15.521381 0a15.521381 15.521381 0 1 0 31.042762 0 15.521381 15.521381 0 1 0-31.042762 0Z" fill="#F15A24" p-id="4335"></path><path d="M427.506123 683.7631a15.418591 15.418591 0 0 1-15.41859-15.418591v-27.342301a15.418591 15.418591 0 0 1 30.837181 0V668.138928a15.418591 15.418591 0 0 1-15.418591 15.624172zM427.506123 817.390885a15.418591 15.418591 0 0 1-15.41859-15.41859V710.283076a15.418591 15.418591 0 0 1 30.837181 0V801.766714a15.418591 15.418591 0 0 1-15.418591 15.624171z" fill="#FFFFFF" p-id="4336"></path><path d="M771.443485 207.225858H707.199358a15.418591 15.418591 0 0 1 0-30.837181h64.244127a15.418591 15.418591 0 0 1 0 30.837181zM833.117848 207.225858H809.989962a15.418591 15.418591 0 0 1 0-30.837181h23.127886a15.418591 15.418591 0 0 1 0 30.837181z" p-id="4337"></path></svg>