<?xml version="1.0" standalone="no"?><!DOCTYPE svg PUBLIC "-//W3C//DTD SVG 1.1//EN" "http://www.w3.org/Graphics/SVG/1.1/DTD/svg11.dtd"><svg t="1573991988462" class="icon" viewBox="0 0 1024 1024" version="1.1" xmlns="http://www.w3.org/2000/svg" p-id="6579" xmlns:xlink="http://www.w3.org/1999/xlink" width="200" height="200"><defs><style type="text/css"></style></defs><path d="M935.224171 364.698798l-26.369932-8.995763v-147.33648c0-50.640852-41.433424-92.074276-92.074276-92.074275H153.12199c-50.640852 0-92.074276 41.433424-92.074276 92.074275v378.739243c0 8.590071 1.217074 16.897923 3.439556 24.800083 5.679678 32.014331 28.116168 60.183415 60.924243 71.366383L753.545044 897.459607c47.924484 16.351121 100.523237-9.507286 116.874359-57.431771l122.236538-358.472319c16.333483-47.924484-9.507286-100.523237-57.43177-116.856719z" fill="#F5B117" p-id="6580"></path><path d="M906.367175 393.273573l-36.318186-12.258931v-163.070245c0-35.930134-29.227409-65.139904-65.139904-65.139905H163.84635c-35.930134 0-65.139904 29.227409-65.139904 65.139905v359.601198c0 1.023048 0.035278 2.028456 0.070555 3.033866-4.833018 30.744341 13.052675 61.506322 43.514796 71.789713l607.372722 205.068109c6.843835 2.310676 13.881696 3.457195 20.901919 3.457195 9.895339 0 19.720123-2.275399 28.856995-6.790919 15.592655-7.725773 27.251869-21.060668 32.808076-37.535261l115.039928-340.710097c11.465188-34.042788-6.861474-71.084163-40.904262-82.584628zM133.842836 582.466807c-0.264581-1.605126-0.405691-3.24553-0.405691-4.921212V217.944397c0-16.756813 13.634754-30.409205 30.409205-30.409206h641.062735c16.756813 0 30.409205 13.634754 30.409205 30.409206v359.601198c0 16.756813-13.634754 30.391566-30.409205 30.391567H163.84635c-15.081131 0.017639-27.639921-11.041858-30.003514-25.470355z m780.497054-117.738657l-115.039928 340.710097c-2.592896 7.690495-8.04327 13.916974-15.310435 17.515279-7.284804 3.598305-15.5221 4.162745-23.212595 1.55221L222.248252 642.703138h582.643194c35.930134 0 65.139904-29.227409 65.139904-65.139904V417.685603l25.205774 8.519516c15.892514 5.36218 24.464946 22.648155 19.102766 38.523031z" fill="#FFFFFF" p-id="6581"></path><path d="M300.511386 222.283529h-96.148827c-18.996934 0-34.43084 15.451545-34.43084 34.43084V346.248665c0 18.996934 15.451545 34.43084 34.43084 34.43084h96.148827c18.996934 0 34.43084-15.451545 34.43084-34.43084v-89.534296c0.017639-18.979295-15.433906-34.43084-34.43084-34.43084z m-0.299859 123.665277h-95.531471v-88.916939H300.211527v88.916939zM380.75006 258.319496h140.386813c8.32549 0 15.081131-6.755641 15.081131-15.081132v-2.222482c0-8.32549-6.755641-15.081131-15.081131-15.081132h-140.386813c-8.32549 0-15.081131 6.755641-15.081131 15.081132v2.222482c0 8.32549 6.755641 15.081131 15.081131 15.081132zM793.002928 285.659558c9.119234 0 16.527509-7.390636 16.527509-16.527509v-41.715644c0-9.119234-7.390636-16.527509-16.527509-16.527508s-16.527509 7.390636-16.527509 16.527508v41.715644c0 9.136873 7.390636 16.527509 16.527509 16.527509zM793.002928 381.631998c9.119234 0 16.527509-7.390636 16.527509-16.527509v-41.715644c0-9.119234-7.390636-16.527509-16.527509-16.527509s-16.527509 7.390636-16.527509 16.527509v41.715644c0 9.119234 7.390636 16.527509 16.527509 16.527509zM793.002928 482.067041c9.119234 0 16.527509-7.390636 16.527509-16.527509v-41.715644c0-9.119234-7.390636-16.527509-16.527509-16.527509s-16.527509 7.390636-16.527509 16.527509v41.715644c0 9.136873 7.390636 16.527509 16.527509 16.527509zM809.530437 519.778689c0-9.119234-7.390636-16.527509-16.527509-16.527509s-16.527509 7.390636-16.527509 16.527509v41.715644c0 9.119234 7.390636 16.527509 16.527509 16.527509s16.527509-7.390636 16.527509-16.527509v-41.715644zM604.779826 289.681193H380.75006c-8.32549 0-15.081131 6.755641-15.081131 15.081132v2.204843c0 8.32549 6.755641 15.081131 15.081131 15.081132h224.029766c8.32549 0 15.081131-6.755641 15.081131-15.081132v-2.204843c0.017639-8.32549-6.738003-15.081131-15.081131-15.081132zM502.016467 353.445275h-121.266407c-8.32549 0-15.081131 6.755641-15.081131 15.081131v2.222483c0 8.32549 6.755641 15.081131 15.081131 15.081131h121.266407c8.32549 0 15.081131-6.755641 15.081132-15.081131v-2.222483c0-8.32549-6.755641-15.081131-15.081132-15.081131z" fill="#FFFFFF" p-id="6582"></path></svg>