<?xml version="1.0" standalone="no"?><!DOCTYPE svg PUBLIC "-//W3C//DTD SVG 1.1//EN" "http://www.w3.org/Graphics/SVG/1.1/DTD/svg11.dtd"><svg t="1574649602168" class="icon" viewBox="0 0 1024 1024" version="1.1" xmlns="http://www.w3.org/2000/svg" p-id="2662" xmlns:xlink="http://www.w3.org/1999/xlink" width="200" height="200"><defs><style type="text/css"></style></defs><path d="M512 198.016a384 384 0 1 0 319.744 596.416l-0.256-0.192a22.016 22.016 0 0 0 3.904-11.904 22.4 22.4 0 0 0-22.464-22.4 21.824 21.824 0 0 0-18.048 9.856l-0.448-0.256 39.04-79.488 0.256 0.064c-0.64 2.112-1.344 4.224-1.344 6.592a22.4 22.4 0 0 0 22.4 22.464 22.336 22.336 0 0 0 21.056-15.616l0.128 0.064c12.8-38.272 20.032-79.04 20.032-121.6a384 384 0 0 0-384-384z" fill="" p-id="2663"></path><path d="M832.192 147.776c-47.04 0-87.808 25.728-110.016 63.616a426.816 426.816 0 0 1 169.536 177.024 127.424 127.424 0 0 0 68.416-112.64 128 128 0 0 0-127.936-128z" fill="" p-id="2664"></path><path d="M512 242.816a339.584 339.584 0 0 0-339.2 339.2c0 187.072 152.128 339.2 339.2 339.2s339.2-152.128 339.2-339.2-152.128-339.2-339.2-339.2zM832.192 192.576c-14.528 0-28.288 3.712-40.384 10.624a468.48 468.48 0 0 1 111.04 115.904c8.064-12.8 12.48-27.776 12.48-43.328a83.2 83.2 0 0 0-83.136-83.2z" fill="#13B3FF" p-id="2665"></path><path d="M192.576 147.776c47.04 0 87.808 25.728 110.016 63.616a426.432 426.432 0 0 0-169.536 177.024 127.424 127.424 0 0 1-68.416-112.64 128 128 0 0 1 127.936-128z" fill="" p-id="2666"></path><path d="M192.576 192.576c14.528 0 28.288 3.712 40.384 10.624a468.48 468.48 0 0 0-111.04 115.904 81.28 81.28 0 0 1-12.48-43.328 83.2 83.2 0 0 1 83.136-83.2z" fill="#13B3FF" p-id="2667"></path><path d="M489.984 579.008c0 17.6 14.4 32 32 32s32-14.4 32-32V376c0-17.6-14.4-32-32-32s-32 14.4-32 32v203.008z" fill="" p-id="2668"></path><path d="M521.984 611.008c17.6 0 32-14.4 32-32s-14.4-32-32-32h-160c-17.6 0-32 14.4-32 32s14.4 32 32 32h160z" fill="" p-id="2669"></path><path d="M442.432 273.856c-7.424 1.28-181.824 33.536-235.008 234.048a16 16 0 0 0 15.424 20.096 16 16 0 0 0 15.488-11.904C286.08 336 441.28 306.56 447.872 305.344a16 16 0 0 0-5.44-31.488z" fill="#FFFFFF" p-id="2670"></path><path d="M216.832 563.008m-16 0a16 16 0 1 0 32 0 16 16 0 1 0-32 0Z" fill="#FFFFFF" p-id="2671"></path></svg>