<?xml version="1.0" standalone="no"?><!DOCTYPE svg PUBLIC "-//W3C//DTD SVG 1.1//EN" "http://www.w3.org/Graphics/SVG/1.1/DTD/svg11.dtd"><svg t="1573989395057" class="icon" viewBox="0 0 1024 1024" version="1.1" xmlns="http://www.w3.org/2000/svg" p-id="2063" xmlns:xlink="http://www.w3.org/1999/xlink" width="200" height="200"><defs><style type="text/css"></style></defs><path d="M868.701422 744.947867 868.701422 259.882464c0-73.038863-60.178199-133.217062-133.217062-133.217062L291.670142 126.665403c-73.038863 0-133.217062 60.178199-133.217062 133.217062L158.453081 744.947867c0 66.487204 50.714692 123.753555 114.047393 133.217062L155.298578 1024l126.908057 0 126.908057-142.680569L630.900474 881.319431l117.201896 142.680569L868.701422 1024l-107.738389-145.835071C821.141232 865.546919 868.701422 811.677725 868.701422 744.947867L868.701422 744.947867zM297.979147 805.36872c-31.787678 0-60.178199-25.236019-60.178199-60.178199 0-31.787678 25.478673-60.178199 60.178199-60.178199 31.787678 0 60.178199 25.478673 60.178199 60.178199C358.157346 776.735545 332.921327 805.36872 297.979147 805.36872L297.979147 805.36872zM722.866351 805.36872C691.078673 805.36872 662.445498 779.890047 662.445498 744.947867 662.445498 713.402844 687.924171 684.769668 722.866351 684.769668c31.787678 0 60.178199 25.478673 60.178199 60.178199C783.04455 776.735545 757.565877 805.36872 722.866351 805.36872L722.866351 805.36872zM811.677725 485.065403c0 38.096682-28.633175 66.487204-66.487204 66.487204L285.361137 551.552607c-38.096682 0-66.487204-28.633175-66.487204-66.487204l0-145.835071c0-38.096682 28.633175-66.487204 66.487204-66.487204l456.432227 0c38.096682 0 66.487204 28.633175 66.487204 66.487204l0 145.835071L811.677725 485.065403zM811.677725 485.065403" p-id="2064"></path><path d="M434.350711 95.120379l161.607583 0c25.478673 0 47.56019-22.081517 47.56019-47.56019 0-25.478673-22.081517-47.56019-47.56019-47.56019L434.350711 0c-25.478673 0-47.56019 22.081517-47.56019 47.56019C386.790521 73.038863 408.872038 95.120379 434.350711 95.120379L434.350711 95.120379zM434.350711 95.120379" p-id="2065"></path></svg>