<?xml version="1.0" standalone="no"?><!DOCTYPE svg PUBLIC "-//W3C//DTD SVG 1.1//EN" "http://www.w3.org/Graphics/SVG/1.1/DTD/svg11.dtd"><svg t="1573992051761" class="icon" viewBox="0 0 1024 1024" version="1.1" xmlns="http://www.w3.org/2000/svg" p-id="7362" xmlns:xlink="http://www.w3.org/1999/xlink" width="200" height="200"><defs><style type="text/css"></style></defs><path d="M972.8 501.0432V870.4a51.2 51.2 0 0 1-51.2 51.2H102.4a51.2 51.2 0 0 1-51.2-51.2V500.0704 512h358.4v102.4h204.8v-102.4h358.4v-10.9568zM614.4 460.8V409.6H409.6v51.2H137.4208C102.656 460.8 70.9632 451.072 51.2 431.5136V307.2a51.2 51.2 0 0 1 51.2-51.2h256V204.8a102.4 102.4 0 0 1 102.4-102.4h102.4a102.4 102.4 0 0 1 102.4 102.4v51.2h256a51.2 51.2 0 0 1 51.2 51.2v126.0544c-18.432 18.432-47.616 27.5456-81.3056 27.5456H614.4z m0-204.8V204.8a51.2 51.2 0 0 0-51.2-51.2H460.8a51.2 51.2 0 0 0-51.2 51.2v51.2h204.8z" p-id="7363"></path></svg>